<?xml version="1.0" encoding="UTF-8"?>
<svg width="16px" height="16px" viewBox="0 0 16 16" version="1.1" xmlns="http://www.w3.org/2000/svg" xmlns:xlink="http://www.w3.org/1999/xlink">
    <!-- Generator: Sketch 49.3 (51167) - http://www.bohemiancoding.com/sketch -->
    <title>ic_arrowBack</title>
    <desc>Created with Sketch.</desc>
    <defs></defs>
    <g id="Style-Guide" stroke="none" stroke-width="1" fill="none" fill-rule="evenodd">
        <g id="S1---Styleguide" transform="translate(-480.000000, -2170.000000)" fill="#546175">
            <g id="04---Icons" transform="translate(260.000000, 2094.000000)">
                <g id="Icons" transform="translate(0.000000, 75.000000)">
                    <g id="ic_arrowBack" transform="translate(220.000000, 1.000000)">
                        <path d="M14.8571429,6.85703401 L3.90171429,6.85703401 L8.80838095,1.95107085 C9.25409524,1.50458934 9.25409524,0.7807712 8.80838095,0.334289694 C8.36190476,-0.111429898 7.63809524,-0.111429898 7.19161905,0.334289694 L0.336,7.18999036 C0.229333333,7.29665829 0.144761905,7.42465982 0.0860952381,7.56561388 C0.0838095238,7.57094727 0.083047619,7.57704258 0.0807619048,7.58237598 C0.0304761905,7.71190133 0,7.85285539 0,7.99990476 C0,8.14695413 0.0304761905,8.28714628 0.0807619048,8.41667163 C0.083047619,8.42276694 0.0838095238,8.42886225 0.0868571429,8.43419565 C0.144761905,8.5751497 0.229333333,8.70238931 0.335238095,8.80905725 L7.19161905,15.6655198 C7.41485714,15.8887606 7.70742857,16 8,16 C8.29257143,16 8.58514286,15.8887606 8.80838095,15.6655198 C9.25409524,15.2190383 9.25409524,14.4952202 8.80838095,14.0487387 L3.90171429,9.14277551 L14.8571429,9.14277551 C15.4887619,9.14277551 16,8.63076941 16,7.99990476 C16,7.36827819 15.4887619,6.85703401 14.8571429,6.85703401" id="Page-1"></path>
                    </g>
                </g>
            </g>
        </g>
    </g>
</svg>