<?xml version="1.0" encoding="UTF-8"?>
<svg width="12px" height="12px" viewBox="0 0 12 12" version="1.1" xmlns="http://www.w3.org/2000/svg" xmlns:xlink="http://www.w3.org/1999/xlink">
    <!-- Generator: Sketch 49.3 (51167) - http://www.bohemiancoding.com/sketch -->
    <title>ic_close</title>
    <desc>Created with Sketch.</desc>
    <defs></defs>
    <g id="Style-Guide" stroke="none" stroke-width="1" fill="none" fill-rule="evenodd">
        <g id="S1---Styleguide" transform="translate(-358.000000, -2171.000000)">
            <g id="04---Icons" transform="translate(260.000000, 2094.000000)">
                <g id="Icons" transform="translate(0.000000, 75.000000)">
                    <g id="ic_close" transform="translate(96.000000, 0.000000)">
                        <rect id="Rectangle-3" x="0" y="0" width="16" height="16"></rect>
                        <path d="M8,6.86862915 L12.8083261,2.06030304 C12.9645358,1.90409332 13.2178018,1.90409332 13.3740115,2.06030304 L13.939697,2.62598846 C14.0959067,2.78219818 14.0959067,3.03546417 13.939697,3.19167389 L9.13137085,8 L13.939697,12.8083261 C14.0959067,12.9645358 14.0959067,13.2178018 13.939697,13.3740115 L13.3740115,13.939697 C13.2178018,14.0959067 12.9645358,14.0959067 12.8083261,13.939697 L8,9.13137085 L3.19167389,13.939697 C3.03546417,14.0959067 2.78219818,14.0959067 2.62598846,13.939697 L2.06030304,13.3740115 C1.90409332,13.2178018 1.90409332,12.9645358 2.06030304,12.8083261 L6.86862915,8 L2.06030304,3.19167389 C1.90409332,3.03546417 1.90409332,2.78219818 2.06030304,2.62598846 L2.62598846,2.06030304 C2.78219818,1.90409332 3.03546417,1.90409332 3.19167389,2.06030304 L8,6.86862915 Z" id="Combined-Shape" fill="#546175"></path>
                    </g>
                </g>
            </g>
        </g>
    </g>
</svg>