<?xml version="1.0" encoding="UTF-8"?>
<svg width="16px" height="16px" viewBox="0 0 16 16" version="1.1" xmlns="http://www.w3.org/2000/svg" xmlns:xlink="http://www.w3.org/1999/xlink">
    <!-- Generator: Sketch 49.3 (51167) - http://www.bohemiancoding.com/sketch -->
    <title>ic_copy</title>
    <desc>Created with Sketch.</desc>
    <defs></defs>
    <g id="Style-Guide" stroke="none" stroke-width="1" fill="none" fill-rule="evenodd">
        <g id="S1---Styleguide" transform="translate(-448.000000, -2170.000000)" fill="#546175" fill-rule="nonzero">
            <g id="04---Icons" transform="translate(260.000000, 2094.000000)">
                <g id="Icons" transform="translate(0.000000, 75.000000)">
                    <g id="ic_copy" transform="translate(188.000000, 1.000000)">
                        <path d="M4,11.5 L4,13 L2,13 C0.8954305,13 0,12.1045695 0,11 L0,2 C0,0.8954305 0.8954305,-1.38555833e-13 2,-1.38555833e-13 L9,-1.38555833e-13 C10.1045695,-1.38555833e-13 11,0.8954305 11,2 L9.3662178,2 C9.19331309,1.70109931 8.87014118,1.5 8.5,1.5 L2.5,1.5 C1.94771525,1.5 1.5,1.94771525 1.5,2.5 L1.5,10.5 C1.5,11.0522847 1.94771525,11.5 2.5,11.5 L4,11.5 Z" id="Combined-Shape"></path>
                        <path d="M7,3 L14,3 C15.1045695,3 16,3.8954305 16,5 L16,14 C16,15.1045695 15.1045695,16 14,16 L7,16 C5.8954305,16 5,15.1045695 5,14 L5,5 C5,3.8954305 5.8954305,3 7,3 Z M6.5,5.5 L6.5,13.5 C6.5,14.0522847 6.94771525,14.5 7.5,14.5 L13.5,14.5 C14.0522847,14.5 14.5,14.0522847 14.5,13.5 L14.5,5.5 C14.5,4.94771525 14.0522847,4.5 13.5,4.5 L7.5,4.5 C6.94771525,4.5 6.5,4.94771525 6.5,5.5 Z" id="Combined-Shape"></path>
                    </g>
                </g>
            </g>
        </g>
    </g>
</svg>