<?xml version="1.0" encoding="UTF-8"?>
<svg width="11px" height="11px" viewBox="0 0 11 11" version="1.1" xmlns="http://www.w3.org/2000/svg" xmlns:xlink="http://www.w3.org/1999/xlink">
    <!-- Generator: Sketch 49.3 (51167) - http://www.bohemiancoding.com/sketch -->
    <title>ic_search</title>
    <desc>Created with Sketch.</desc>
    <defs></defs>
    <g id="Style-Guide" stroke="none" stroke-width="1" fill="none" fill-rule="evenodd">
        <g id="S1---Styleguide" transform="translate(-263.000000, -2172.000000)" fill="#546175">
            <g id="04---Icons" transform="translate(260.000000, 2094.000000)">
                <g id="Icons" transform="translate(0.000000, 75.000000)">
                    <g id="ic_search">
                        <path d="M10.2430347,5.38196528 C8.90041435,4.03934491 6.72458565,4.03934491 5.38196528,5.38196528 C4.03934491,6.72458565 4.03934491,8.90041435 5.38196528,10.2430347 C6.72458565,11.5856551 8.90041435,11.5856551 10.2430347,10.2430347 C11.5856551,8.90041435 11.5856551,6.72458565 10.2430347,5.38196528 M13.7992575,13.7992575 C13.5309146,14.0669142 13.0964874,14.0669142 12.8281445,13.7992575 L10.666989,11.6374158 C8.78515722,13.0443287 6.1168268,12.9111867 4.40725605,11.2009296 C2.53091465,9.32527452 2.53091465,6.28359745 4.40725605,4.40725605 C6.28291116,2.53091465 9.32527452,2.53091465 11.2009296,4.40725605 C12.9111867,6.1168268 13.0443287,8.78515722 11.6374158,10.666989 L13.7992575,12.8288308 C14.0669142,13.0964874 14.0669142,13.5309146 13.7992575,13.7992575" id="Search-Icon"></path>
                    </g>
                </g>
            </g>
        </g>
    </g>
</svg>