<?xml version="1.0" encoding="UTF-8"?>
<svg width="244px" height="48px" viewBox="0 0 244 48" version="1.1" xmlns="http://www.w3.org/2000/svg" xmlns:xlink="http://www.w3.org/1999/xlink">
    <!-- Generator: sketchtool 50.2 (55047) - http://www.bohemiancoding.com/sketch -->
    <title>C45C56FD-DBF1-4156-B706-23D85BFDB4D6</title>
    <desc>Created with sketchtool.</desc>
    <defs>
        <linearGradient x1="50%" y1="0%" x2="50%" y2="100%" id="linearGradient-1">
            <stop stop-color="#B6F3FA" offset="0%"></stop>
            <stop stop-color="#287CF3" offset="100%"></stop>
        </linearGradient>
        <circle id="path-2" cx="24" cy="24" r="24"></circle>
    </defs>
    <g id="MVP-1.0" stroke="none" stroke-width="1" fill="none" fill-rule="evenodd">
        <g id="studio_login" transform="translate(-865.000000, -80.000000)">
            <g id="bg_slyceLogo_temp" transform="translate(865.000000, 80.000000)">
                <g>
                    <path d="M79.82,17.02 L75.844,18.14 C75.704,17.216 74.948,15.648 72.54,15.648 C70.888,15.648 69.824,16.684 69.824,17.776 C69.824,18.728 70.412,19.428 71.784,19.68 L74.444,20.184 C78.224,20.884 80.184,23.32 80.184,26.148 C80.184,29.256 77.58,32.42 72.848,32.42 C67.36,32.42 65.008,28.864 64.728,26.064 L68.788,25.084 C68.956,26.904 70.188,28.5 72.904,28.5 C74.64,28.5 75.704,27.66 75.704,26.428 C75.704,25.42 74.892,24.692 73.576,24.44 L70.86,23.936 C67.5,23.292 65.456,21.052 65.456,18.112 C65.456,14.36 68.76,11.728 72.568,11.728 C77.524,11.728 79.4,14.696 79.82,17.02 Z M89.3739999,32 L85.1179999,32 L85.1179999,11.728 L89.3739999,11.728 L89.3739999,32 Z M100.916,37.348 L96.4359998,37.348 L99.5999998,30.124 L93.7479998,18.084 L98.5079998,18.084 L101.896,25.532 L104.976,18.084 L109.484,18.084 L100.916,37.348 Z M119.682,21.584 C117.918,21.584 116.49,22.816 116.49,25.056 C116.49,27.268 117.974,28.5 119.738,28.5 C121.39,28.5 122.314,27.464 122.622,26.428 L126.374,27.576 C125.758,30.012 123.462,32.42 119.738,32.42 C115.594,32.42 112.262,29.368 112.262,25.056 C112.262,20.716 115.51,17.664 119.598,17.664 C123.434,17.664 125.674,20.016 126.29,22.508 L122.482,23.656 C122.174,22.592 121.334,21.584 119.682,21.584 Z M134.528,23.376 L140.1,23.376 C140.044,22.312 139.316,21.024 137.3,21.024 C135.508,21.024 134.612,22.34 134.528,23.376 Z M140.408,26.988 L143.964,27.996 C143.292,30.404 141.08,32.42 137.552,32.42 C133.716,32.42 130.3,29.676 130.3,25 C130.3,20.52 133.632,17.664 137.244,17.664 C141.556,17.664 144.216,20.324 144.216,24.804 C144.216,25.392 144.16,26.036 144.132,26.12 L134.444,26.12 C134.528,27.688 135.956,28.808 137.608,28.808 C139.148,28.808 140.016,28.08 140.408,26.988 Z" id="Slyce" fill="#333333"></path>
                    <path d="M166.176,16.656 L163.712,17.524 C163.488,16.096 162.284,14.136 159.512,14.136 C157.272,14.136 155.676,15.592 155.676,17.44 C155.676,18.868 156.544,19.96 158.224,20.324 L161.192,20.968 C164.496,21.696 166.344,23.768 166.344,26.54 C166.344,29.62 163.712,32.42 159.484,32.42 C154.696,32.42 152.428,29.34 152.064,26.512 L154.696,25.672 C154.892,27.884 156.46,29.928 159.456,29.928 C162.2,29.928 163.544,28.5 163.544,26.764 C163.544,25.336 162.564,24.104 160.576,23.684 L157.748,23.068 C154.92,22.452 152.904,20.604 152.904,17.636 C152.904,14.528 155.788,11.728 159.456,11.728 C163.936,11.728 165.728,14.5 166.176,16.656 Z M175.422,14.276 L175.422,18.532 L178.334,18.532 L178.334,20.912 L175.422,20.912 L175.422,27.912 C175.422,29.144 175.926,29.76 177.298,29.76 C177.634,29.76 178.11,29.704 178.334,29.648 L178.334,31.888 C178.11,31.972 177.438,32.14 176.542,32.14 C174.246,32.14 172.79,30.74 172.79,28.304 L172.79,20.912 L170.214,20.912 L170.214,18.532 L170.942,18.532 C172.398,18.532 173.014,17.636 173.014,16.46 L173.014,14.276 L175.422,14.276 Z M193.04,30.376 C192.312,31.776 190.632,32.42 189.064,32.42 C185.928,32.42 184.024,30.068 184.024,27.016 L184.024,18.532 L186.656,18.532 L186.656,26.624 C186.656,28.472 187.496,30.096 189.708,30.096 C191.836,30.096 192.9,28.696 192.9,26.652 L192.9,18.532 L195.532,18.532 L195.532,29.508 C195.532,30.572 195.616,31.524 195.672,32 L193.152,32 C193.096,31.692 193.04,30.936 193.04,30.376 Z M203.77,25.224 C203.77,27.996 205.198,30.04 207.718,30.04 C210.126,30.04 211.61,27.94 211.61,25.168 C211.61,22.396 210.154,20.492 207.746,20.492 C205.338,20.492 203.77,22.452 203.77,25.224 Z M211.638,30.18 L211.638,29.956 C210.994,31.244 209.566,32.364 207.466,32.364 C203.518,32.364 201.082,29.228 201.082,25.224 C201.082,21.416 203.658,18.168 207.466,18.168 C209.846,18.168 211.134,19.344 211.582,20.436 L211.582,11.728 L214.186,11.728 L214.186,29.508 C214.186,30.796 214.298,31.776 214.326,32 L211.778,32 C211.722,31.692 211.638,30.992 211.638,30.18 Z M223.6,32 L220.996,32 L220.996,18.532 L223.6,18.532 L223.6,32 Z M220.408,13.436 C220.408,12.372 221.248,11.532 222.284,11.532 C223.348,11.532 224.188,12.372 224.188,13.436 C224.188,14.472 223.348,15.312 222.284,15.312 C221.248,15.312 220.408,14.472 220.408,13.436 Z M236.178,30.068 C238.418,30.068 240.378,28.388 240.378,25.252 C240.378,22.144 238.418,20.464 236.178,20.464 C233.938,20.464 231.978,22.144 231.978,25.252 C231.978,28.388 233.938,30.068 236.178,30.068 Z M236.178,18.112 C240.21,18.112 243.066,21.164 243.066,25.252 C243.066,29.368 240.21,32.42 236.178,32.42 C232.146,32.42 229.29,29.368 229.29,25.252 C229.29,21.164 232.146,18.112 236.178,18.112 Z" id="Studio" fill-opacity="0.5" fill="#333333"></path>
                    <g>
                        <mask id="mask-3" fill="white">
                            <use xlink:href="#path-2"></use>
                        </mask>
                        <g id="Oval-5">
                            <use fill="#287CF3" xlink:href="#path-2"></use>
                            <use fill="url(#linearGradient-1)" xlink:href="#path-2"></use>
                        </g>
                        <g id="Group" mask="url(#mask-3)" fill="#FFFFFF">
                            <g transform="translate(11.700000, 7.800000)">
                                <path d="M8.01948155,3.72005712 C3.43477831,8.30476036 3.5327015,15.8359562 8.23819912,20.5414538 L24.8408782,3.93877468 C20.1353806,-0.766722933 12.6041848,-0.864646122 8.01948155,3.72005712 Z" id="Combined-Shape" fill-opacity="0.9"></path>
                                <path d="M17.361393,27.9971604 C21.9460962,23.4124572 21.8481731,15.8812614 17.1426754,11.1757638 L0.539996338,27.7784429 C5.24549395,32.4839405 12.7766898,32.5818637 17.361393,27.9971604 Z" id="Oval" fill-opacity="0.72"></path>
                            </g>
                        </g>
                    </g>
                </g>
            </g>
        </g>
    </g>
</svg>