<?xml version="1.0" encoding="UTF-8"?>
<svg width="16px" height="16px" viewBox="0 0 16 16" version="1.1" xmlns="http://www.w3.org/2000/svg" xmlns:xlink="http://www.w3.org/1999/xlink">
    <!-- Generator: Sketch 49.3 (51167) - http://www.bohemiancoding.com/sketch -->
    <title>ic_help</title>
    <desc>Created with Sketch.</desc>
    <defs></defs>
    <g id="Style-Guide" stroke="none" stroke-width="1" fill="none" fill-rule="evenodd">
        <g id="S1---Styleguide" transform="translate(-420.000000, -2169.000000)" fill="#546175">
            <g id="04---Icons" transform="translate(260.000000, 2094.000000)">
                <g id="Icons" transform="translate(0.000000, 75.000000)">
                    <g id="ic_help" transform="translate(160.000000, 0.000000)">
                        <path d="M8,16 C3.581722,16 0,12.418278 0,8 C0,3.581722 3.581722,0 8,0 C12.418278,0 16,3.581722 16,8 C16,12.418278 12.418278,16 8,16 Z M8,14.2222222 C8.49091978,14.2222222 8.88888889,13.8242531 8.88888889,13.3333333 C8.88888889,12.8424136 8.49091978,12.4444444 8,12.4444444 C7.50908022,12.4444444 7.11111111,12.8424136 7.11111111,13.3333333 C7.11111111,13.8242531 7.50908022,14.2222222 8,14.2222222 Z M11.4574147,5.37697778 C11.1608926,4.09431111 10.1154964,3.05431111 8.82967697,2.76275556 C6.50736592,2.23475556 4.45931554,3.95208889 4.44417778,6.17786667 C4.44417778,6.18586667 4.44863006,6.30853333 4.44863006,6.30853333 C4.49404335,6.75742222 4.86091151,7.11208889 5.32216807,7.11208889 C5.81280971,7.11208889 6.21084385,6.71475556 6.21262476,6.22497778 C6.2117343,5.24364444 7.01047395,4.44542222 7.99353814,4.44542222 C8.97571186,4.44542222 9.77445151,5.24275556 9.77445151,6.2232 C9.77445151,7.20275556 8.97571186,8.00097778 7.99353814,8.00097778 L8.00066179,8.00097778 C7.51269152,8.00097778 7.11910967,8.39297778 7.11198601,8.87831111 L7.11198601,8.91297778 L7.11198601,9.6552 L7.11198601,10.6676444 C7.11198601,11.1583111 7.51091061,11.5565333 8.0024427,11.5565333 C8.49486525,11.5565333 8.89289939,11.1583111 8.89289939,10.6676444 L8.89289939,9.97342222 C8.89289939,9.78053333 9.02201561,9.61875556 9.20366877,9.55386667 C10.8180667,8.97075556 11.8946289,7.26942222 11.4574147,5.37697778 Z" id="Combined-Shape"></path>
                    </g>
                </g>
            </g>
        </g>
    </g>
</svg>