<?xml version="1.0" encoding="UTF-8"?>
<svg width="16px" height="16px" viewBox="0 0 16 16" version="1.1" xmlns="http://www.w3.org/2000/svg" xmlns:xlink="http://www.w3.org/1999/xlink">
    <!-- Generator: Sketch 49.3 (51167) - http://www.bohemiancoding.com/sketch -->
    <title>ic_validSuccess</title>
    <desc>Created with Sketch.</desc>
    <defs></defs>
    <g id="Style-Guide" stroke="none" stroke-width="1" fill="none" fill-rule="evenodd">
        <g id="S1---Styleguide" transform="translate(-592.000000, -2170.000000)" fill="#546175">
            <g id="04---Icons" transform="translate(260.000000, 2094.000000)">
                <g id="Icons" transform="translate(0.000000, 75.000000)">
                    <g id="ic_validSuccess" transform="translate(332.000000, 1.000000)">
                        <path d="M8,16 C3.581722,16 0,12.418278 0,8 C0,3.581722 3.581722,0 8,0 C12.418278,0 16,3.581722 16,8 C16,12.418278 12.418278,16 8,16 Z M12.7178631,6.68528116 C13.0940456,6.29931253 13.0940456,5.67544509 12.7178631,5.28947647 C12.3416805,4.90350784 11.7336309,4.90350784 11.3574483,5.28947647 L7.13958523,9.61706328 L5.64255171,8.08108585 C5.26636913,7.69511722 4.65831953,7.69511722 4.28213694,8.08108585 C3.90595435,8.46705447 3.90595435,9.09190904 4.28213694,9.47689053 L6.45937784,11.7107703 C6.64698808,11.9032611 6.89328665,12 7.13958523,12 C7.3858838,12 7.63122027,11.9032611 7.81979261,11.7107703 L12.7178631,6.68528116 Z" id="Combined-Shape"></path>
                    </g>
                </g>
            </g>
        </g>
    </g>
</svg>