<?xml version="1.0" encoding="UTF-8"?>
<svg width="16px" height="16px" viewBox="0 0 16 16" version="1.1" xmlns="http://www.w3.org/2000/svg" xmlns:xlink="http://www.w3.org/1999/xlink">
    <!-- Generator: Sketch 49.3 (51167) - http://www.bohemiancoding.com/sketch -->
    <title>ic_validError</title>
    <desc>Created with Sketch.</desc>
    <defs></defs>
    <g id="Style-Guide" stroke="none" stroke-width="1" fill="none" fill-rule="evenodd">
        <g id="S1---Styleguide" transform="translate(-568.000000, -2170.000000)" fill="#fd7676">
            <g id="04---Icons" transform="translate(260.000000, 2094.000000)">
                <g id="Icons" transform="translate(0.000000, 75.000000)">
                    <g id="ic_validError" transform="translate(308.000000, 1.000000)">
                        <path d="M8,6.93933983 L5.52512627,4.46446609 C5.23223305,4.17157288 4.75735931,4.17157288 4.46446609,4.46446609 C4.17157288,4.75735931 4.17157288,5.23223305 4.46446609,5.52512627 L6.93933983,8 L4.46446609,10.4748737 C4.17157288,10.767767 4.17157288,11.2426407 4.46446609,11.5355339 C4.75735931,11.8284271 5.23223305,11.8284271 5.52512627,11.5355339 L8,9.06066017 L10.4748737,11.5355339 C10.767767,11.8284271 11.2426407,11.8284271 11.5355339,11.5355339 C11.8284271,11.2426407 11.8284271,10.767767 11.5355339,10.4748737 L9.06066017,8 L11.5355339,5.52512627 C11.8284271,5.23223305 11.8284271,4.75735931 11.5355339,4.46446609 C11.2426407,4.17157288 10.767767,4.17157288 10.4748737,4.46446609 L8,6.93933983 Z M8,16 C3.581722,16 0,12.418278 0,8 C0,3.581722 3.581722,0 8,0 C12.418278,0 16,3.581722 16,8 C16,12.418278 12.418278,16 8,16 Z" id="Combined-Shape"></path>
                    </g>
                </g>
            </g>
        </g>
    </g>
</svg>